<?xml version="1.0" encoding="UTF-8"?>
<svg width="600" height="400" viewBox="0 0 600 400" fill="none" xmlns="http://www.w3.org/2000/svg">
  <!-- Shield Background -->
  <path d="M300 50L500 150V250C500 300 400 350 300 350C200 350 100 300 100 250V150L300 50Z" fill="#E2E8F0"/>
  
  <!-- Shield Border -->
  <path d="M300 50L500 150V250C500 300 400 350 300 350C200 350 100 300 100 250V150L300 50Z" stroke="#2563EB" stroke-width="8"/>
  
  <!-- Lock Body -->
  <rect x="250" y="180" width="100" height="80" rx="10" fill="#2563EB"/>
  
  <!-- Lock Top -->
  <rect x="270" y="150" width="60" height="40" rx="5" fill="#2563EB"/>
  
  <!-- Lock Keyhole -->
  <circle cx="300" cy="200" r="15" fill="white"/>
  <rect x="295" y="200" width="10" height="20" fill="white"/>
  
  <!-- Decorative Elements -->
  <circle cx="200" cy="150" r="10" fill="#1E40AF" opacity="0.5"/>
  <circle cx="400" cy="150" r="10" fill="#1E40AF" opacity="0.5"/>
  <circle cx="200" cy="250" r="10" fill="#1E40AF" opacity="0.5"/>
  <circle cx="400" cy="250" r="10" fill="#1E40AF" opacity="0.5"/>
</svg> 